<svg width="138" height="80" viewBox="0 0 138 80" fill="none" xmlns="http://www.w3.org/2000/svg">
<path d="M8.86953 20.6595C8.94868 18.193 9.13334 16.6086 9.18325 16.2179L9.19893 16.1071L9.2795 16.0407C9.97323 15.4643 26.5566 1.9358 50.4066 1.9358C55.4096 1.9358 60.4362 2.54869 65.3415 3.75588L65.5362 3.80374L65.5511 4.00804C65.5583 4.10161 66.0452 10.9233 65.1048 20.6595H67.0456C67.9774 10.8376 67.484 3.95803 67.4776 3.86517L67.3621 2.26296L65.8042 1.87651C60.7456 0.632171 55.5651 0 50.4066 0C25.8685 0 8.7633 13.9556 8.04532 14.5514L7.38938 15.0978L7.26817 15.9657C7.21541 16.3772 7.02005 18.0558 6.93948 20.6595H8.86953Z" fill="white"/>
<path d="M55.5679 55.6489C55.3084 56.1561 55.0538 56.6711 54.7843 57.1669C50.0252 65.9015 43.7894 72.7747 36.2503 77.592L36.082 77.6999L35.9116 77.587C26.4346 71.3775 20.2915 63.4586 16.3095 55.6489H14.1435C18.236 63.9972 24.6892 72.5475 34.8507 79.2043L36.0749 80L37.2891 79.2235C45.1063 74.2283 51.5631 67.1194 56.4805 58.094C56.9147 57.2954 57.3325 56.4768 57.7425 55.6489H55.5679Z" fill="white"/>
<path d="M116.504 30.1706V25.2211H100.172V50.6322H116.504V46.0956H105.128V40.0417H115.201V35.5051H105.128V30.1706H116.504Z" fill="white"/>
<path d="M137.106 25.2211H119.076V30.1706H125.614V50.6322H130.568V30.1706H137.106V25.2211Z" fill="white"/>
<path d="M34.7887 36.3451H27.097L27.0949 30.1706H34.7887V36.3451ZM36.5883 41.0761C38.4085 40.4875 39.729 38.7752 39.729 36.758V29.7584C39.729 27.2562 37.6984 25.2211 35.2008 25.2211H22.1475V50.6322H27.1027L27.0991 41.2954H31.2865L35.302 50.6322H40.6972L36.5883 41.0761Z" fill="white"/>
<path d="M17.5737 35.2987V29.7584C17.5737 27.2562 15.5416 25.2211 13.0448 25.2211H4.52888C2.03129 25.2211 0 27.2562 0 29.7584V46.0956C0 48.5978 2.03129 50.6329 4.52888 50.6329H13.0448C15.5416 50.6329 17.5737 48.5978 17.5737 46.0956V41.0053H12.6334V45.6841H4.94027V30.1706H12.6334V35.2987H17.5737Z" fill="white"/>
<path d="M72.7886 35.0922V29.7584C72.7886 27.2562 70.7573 25.2211 68.2598 25.2211H59.7424C57.2456 25.2211 55.2143 27.2562 55.2143 29.7584V46.0956C55.2143 48.5978 57.2456 50.6329 59.7424 50.6329H68.2598C70.7573 50.6329 72.7886 48.5978 72.7886 46.0956V41.0053H67.8484V45.6841H60.1545V30.1706H67.8484V35.0922H72.7886Z" fill="white"/>
<path d="M89.2408 35.3572L96.9767 25.2211H91.2756L82.3391 37.0245V25.2211H77.3846V50.6322H82.3391V44.4926L85.9432 39.6774L91.784 50.6322H97.3852L89.2408 35.3572Z" fill="white"/>
<path d="M45.1056 33.0508H50.0608V30.9757H45.1056V33.0508Z" fill="white"/>
<path d="M45.1056 50.4752H50.0608V33.8566H45.1056V50.4752Z" fill="white"/>
<path d="M48.992 24.9775C48.7154 25.4569 48.2028 25.7833 47.6089 25.7833C47.0099 25.7833 46.4945 25.4504 46.2185 24.9633C45.5825 25.1204 45.1056 25.6947 45.1056 26.3783V30.1699H50.0608V26.3783C50.0608 25.7111 49.6059 25.1504 48.992 24.9775Z" fill="white"/>
<path d="M110.018 65.5493H111.715V63.845H110.018V65.5493Z" fill="white"/>
<path d="M73.4681 65.5493H75.1657V63.845H73.4681V65.5493Z" fill="white"/>
<path d="M82.9359 62.0614V64.1136H78.7735V57.0854H82.9359V58.9841H84.369V57.069C84.369 56.289 83.7316 55.6497 82.953 55.6497H78.7563C77.9771 55.6497 77.3404 56.289 77.3404 57.069V64.1307C77.3404 64.9108 77.9771 65.5501 78.7563 65.5501H82.953C83.7316 65.5501 84.369 64.9108 84.369 64.1307V62.0614H82.9359Z" fill="white"/>
<path d="M92.256 62.0614V64.1136H88.0929V57.0854H92.256V62.0614ZM92.2724 55.6497H88.0758C87.2979 55.6497 86.6605 56.289 86.6605 57.069V64.1307C86.6605 64.9108 87.2979 65.5501 88.0758 65.5501H92.2724C93.0517 65.5501 93.6891 64.9108 93.6891 64.1307V57.069C93.6891 56.289 93.0517 55.6497 92.2724 55.6497Z" fill="white"/>
<path fill-rule="evenodd" clip-rule="evenodd" d="M114.493 55.6497H119.456C120.235 55.6497 120.872 56.289 120.872 57.069V64.1308C120.872 64.9108 120.235 65.5501 119.456 65.5501H115.26C114.481 65.5501 113.844 64.9108 113.844 64.1308V60.752C113.844 59.972 114.481 59.3341 115.26 59.3341H119.439V57.0854H114.493V55.6497ZM115.276 64.1136H119.439V60.7684H115.276V64.1136Z" fill="white"/>
<path d="M129.095 55.6497V64.1136H124.933V55.6497H123.5V64.1307C123.5 64.9108 124.137 65.5501 124.916 65.5501H129.112C129.89 65.5501 130.528 64.9108 130.528 64.1307V55.6497H129.095Z" fill="white"/>
<path d="M106.33 55.6497H97.7331C96.9538 55.6497 96.3164 56.289 96.3164 57.069V65.5501H97.7502V57.0854H101.317V65.5501H102.75V57.0854H106.313V65.5501H107.746V57.069C107.746 56.289 107.108 55.6497 106.33 55.6497Z" fill="white"/>
<path d="M50.3139 17.3243L45.4728 22.1753C46.061 22.641 46.8011 22.9239 47.6089 22.9239C49.5161 22.9239 51.0619 21.3745 51.0619 19.4652C51.0619 18.6551 50.7795 17.9137 50.3139 17.3243Z" fill="white"/>
<path d="M49.7471 16.7536C49.1582 16.2872 48.4174 16.0057 47.6089 16.0057C45.7031 16.0057 44.1566 17.5544 44.1566 19.4652C44.1566 20.2745 44.4375 21.016 44.9031 21.606L49.7471 16.7536Z" fill="white"/>
</svg>
