<svg xmlns:xlink="http://www.w3.org/1999/xlink" xmlns="http://www.w3.org/2000/svg" width="181" height="29" viewBox="0 0 181 29" fill="none">
<path fill-rule="evenodd" clip-rule="evenodd" d="M40.3877 1.10395C39.9101 0.72721 39.3083 0.5 38.6523 0.5C37.1048 0.5 35.8495 1.75069 35.8495 3.29381C35.8495 3.94761 36.0775 4.54658 36.4555 5.02302L40.3877 1.10395ZM40.8487 1.56502L36.9177 5.48242C37.3957 5.85875 37.9963 6.08762 38.6523 6.08762C40.2006 6.08762 41.4555 4.8361 41.4555 3.29381C41.4555 2.6396 41.2263 2.04104 40.8487 1.56502ZM150.099 16.2602H139.414C138.446 16.2602 137.654 17.0502 137.654 18.0151V28.5H139.436V18.0355H143.869V28.5H145.65V18.0355H150.079V28.5H151.86V18.0151C151.86 17.0502 151.067 16.2602 150.099 16.2602ZM178.393 16.2602V26.7247H173.22V16.2602H171.439V26.7459C171.439 27.7104 172.231 28.5 173.199 28.5H178.414C179.382 28.5 180.174 27.7104 180.174 26.7459V16.2602H178.393ZM161.217 26.7247H166.392V22.5888H161.217V26.7247ZM168.173 18.0151V26.7459C168.173 27.7104 167.381 28.5 166.413 28.5H161.197C160.23 28.5 159.438 27.7104 159.438 26.7459V22.568C159.438 21.6035 160.23 20.8147 161.197 20.8147H166.392V18.0355H160.245V16.2602H166.413C167.381 16.2602 168.173 17.0502 168.173 18.0151ZM132.607 20.3819V18.0355H127.433V26.7247H132.607V20.3819ZM134.388 18.0151V26.7459C134.388 27.7104 133.596 28.5 132.628 28.5H127.412C126.445 28.5 125.653 27.7104 125.653 26.7459V18.0151C125.653 17.0502 126.445 16.2602 127.412 16.2602H132.628C133.596 16.2602 134.388 17.0502 134.388 18.0151ZM121.024 24.1872V26.7247H115.85V18.0355H121.024V20.3819H122.804V18.0151C122.804 17.0502 122.012 16.2602 121.045 16.2602H115.829C114.86 16.2602 114.068 17.0502 114.068 18.0151V26.7459C114.068 27.7104 114.86 28.5 115.829 28.5H121.045C122.012 28.5 122.804 27.7104 122.804 26.7459V24.1872H121.024ZM109.256 28.5H111.366V26.3928H109.256V28.5ZM154.683 28.5H156.791V26.3928H154.683V28.5ZM39.7755 7.7458C39.55 8.13334 39.1341 8.39669 38.6523 8.39669C38.1659 8.39669 37.747 8.12794 37.5232 7.73458C37.0073 7.86127 36.6197 8.32483 36.6197 8.87728V11.9394H40.6432V8.87728C40.6432 8.33812 40.2735 7.88536 39.7755 7.7458ZM36.6197 28.3384H40.6428V14.9168H36.6197V28.3384ZM36.6197 14.2659H40.6428V12.5903H36.6197V14.2659ZM72.4517 16.1289L78.732 7.94269H74.1037L66.8486 17.4751V7.94269H62.8259V28.4655H66.8486V23.5072L69.7743 19.618L74.5163 28.4655H79.0637L72.4517 16.1289ZM59.0945 15.915V11.6071C59.0945 9.58632 57.4454 7.94269 55.4178 7.94269H48.5031C46.4759 7.94269 44.8272 9.58632 44.8272 11.6071V24.8019C44.8272 26.8227 46.4759 28.4664 48.5031 28.4664H55.4178C57.4454 28.4664 59.0945 26.8227 59.0945 24.8019V20.6905H55.0839V24.4692H48.8378V11.9403H55.0839V15.915H59.0945ZM14.2674 16.082V11.6071C14.2674 9.58632 12.6178 7.94269 10.5906 7.94269H3.67676C1.64917 7.94269 0 9.58632 0 11.6071V24.8019C0 26.8227 1.64917 28.4664 3.67676 28.4664H10.5906C12.6178 28.4664 14.2674 26.8227 14.2674 24.8019V20.6905H10.2563V24.4692H4.0106V11.9403H10.2563V16.082H14.2674ZM28.2442 11.9403H21.9976L21.9993 16.9268H28.2442V11.9403ZM33.0404 28.4655H28.6606L25.4006 20.9248H22.001L22.0039 28.4655H17.9812V7.94269H28.5781C30.6061 7.94269 32.2548 9.58632 32.2548 11.6071V17.2604C32.2548 18.8895 31.1825 20.2727 29.7046 20.7479L33.0404 28.4655ZM111.312 7.94269H96.6736V11.9403H101.982V28.4655H106.004V11.9403H111.312V7.94269ZM94.5856 11.9403V7.94269H81.3268V28.4655H94.5856V24.8019H85.3495V19.9121H93.5282V16.2485H85.3495V11.9403H94.5856Z" fill="white"/>
</svg>